<?xml version="1.0" encoding="UTF-8"?>
<svg id="Camada_1" data-name="Camada 1" xmlns="http://www.w3.org/2000/svg" viewBox="0 0 1662.8 1920">
  <polygon points="0 719.97 0 480 831.4 0 1662.8 480 1662.8 719.97 1558.86 659.95 1558.86 539.96 831.4 119.99 103.93 539.96 103.93 660.01 0 719.97" stroke-width="0"/>
  <polygon points="415.73 1200.03 415.73 960 311.8 899.98 207.86 960 311.8 1019.96 207.86 1079.99 103.93 1019.96 103.93 899.98 207.86 839.96 311.8 899.98 415.73 839.96 207.86 720.03 0 840.01 0 1079.99 207.86 1199.97 311.8 1140.01 311.8 1259.99 415.73 1319.95 519.6 1259.99 415.73 1200.03" stroke-width="0"/>
  <path d="M1039.26,599.99l-103.93,59.96v120.04l-103.93-60.02-207.8,119.99v240.03l207.8,119.99,207.86-119.99v-360.01l103.93-60.02-103.93-59.96ZM935.33,1019.96l-103.93,60.02-103.93-59.96v-120.04l103.93-59.96,103.93,59.96v119.99Z" stroke-width="0"/>
  <path d="M1454.93,719.97l-207.8,119.99v360.01l-103.93,60.02,103.93,60.02,103.93-60.02v-119.99l103.93,59.96,207.81-119.99v-240.03l-207.87-119.99ZM1558.86,1020.02l-103.87,59.96-103.93-60.02v-119.99l103.93-60.02,103.87,60.02v120.04Z" stroke-width="0"/>
  <polygon points="623.59 1560.04 623.59 1440 727.46 1379.98 831.4 1440 935.33 1379.98 1039.26 1440 1039.26 1559.99 831.4 1679.97 623.59 1560.04" stroke-width="0"/>
  <polygon points="207.86 599.99 311.8 660.01 623.59 480 727.46 539.96 831.4 479.94 935.33 539.96 1039.26 479.94 1351.06 659.95 1454.93 599.99 831.4 239.97 207.86 599.99" stroke-width="0"/>
  <polygon points="0 1199.97 103.93 1259.99 103.93 1379.98 831.4 1800.01 1558.86 1380.04 1558.92 1259.99 1662.8 1200.03 1662.8 1440 831.46 1920 0 1440 0 1199.97" stroke-width="0"/>
</svg>